HIERARCHY
ROOT Hips
{
	OFFSET 0.000000 100.481300 0.000000
	CHANNELS 6 Xposition Yposition Zposition Xrotation Yrotation Zrotation
	JOINT Spine
	{
		OFFSET -0.279200 12.230698 -2.892100
		CHANNELS 3 Xrotation Yrotation Zrotation
		JOINT Spine1
		{
			OFFSET -0.325700 14.269203 -3.374200
			CHANNELS 3 Xrotation Yrotation Zrotation
			JOINT Spine2
			{
				OFFSET -0.372300 16.307602 -0.352600
				CHANNELS 3 Xrotation Yrotation Zrotation
				JOINT Neck
				{
					OFFSET -0.418800 17.814194 8.416900
					CHANNELS 3 Xrotation Yrotation Zrotation
					JOINT Head
					{
						OFFSET 0.000000 7.031097 3.806800
						CHANNELS 3 Xrotation Yrotation Zrotation
						JOINT HeadTop_End
						{
							OFFSET 0.000000 24.646606 12.978600
							CHANNELS 3 Xrotation Yrotation Zrotation
							End Site
							{
								OFFSET 0.000000 27.854965 0.000000
							}
						}
					}
				}
				JOINT LeftShoulder
				{
					OFFSET 16.952999 14.495407 -7.737500
					CHANNELS 3 Xrotation Yrotation Zrotation
					JOINT LeftArm
					{
						OFFSET 9.308998 -2.777710 0.208600
						CHANNELS 3 Xrotation Yrotation Zrotation
						JOINT LeftForeArm
						{
							OFFSET 29.972298 0.000000 0.000000
							CHANNELS 3 Xrotation Yrotation Zrotation
							JOINT LeftHand
							{
								OFFSET 26.026505 0.000000 0.000000
								CHANNELS 3 Xrotation Yrotation Zrotation
								JOINT LeftHandThumb1
								{
									OFFSET 12.240501 -7.147949 9.207150
									CHANNELS 3 Xrotation Yrotation Zrotation
									JOINT LeftHandThumb2
									{
										OFFSET 4.138618 -2.389435 2.389433
										CHANNELS 3 Xrotation Yrotation Zrotation
										JOINT LeftHandThumb3
										{
											OFFSET 2.726913 -1.574387 1.574386
											CHANNELS 3 Xrotation Yrotation Zrotation
											JOINT LeftHandThumb4
											{
												OFFSET 3.941010 -2.275345 2.275342
												CHANNELS 3 Xrotation Yrotation Zrotation
												End Site
												{
													OFFSET -0.005798 5.087799 0.009903
												}
											}
										}
									}
								}
								JOINT LeftHandIndex1
								{
									OFFSET 24.424698 -1.985611 5.953459
									CHANNELS 3 Xrotation Yrotation Zrotation
									JOINT LeftHandIndex2
									{
										OFFSET 6.426697 0.000000 0.000000
										CHANNELS 3 Xrotation Yrotation Zrotation
										JOINT LeftHandIndex3
										{
											OFFSET 5.337898 0.000000 0.000000
											CHANNELS 3 Xrotation Yrotation Zrotation
											JOINT LeftHandIndex4
											{
												OFFSET 4.409401 0.000000 0.000000
												CHANNELS 3 Xrotation Yrotation Zrotation
												End Site
												{
													OFFSET 0.000000 4.409363 0.014373
												}
											}
										}
									}
								}
								JOINT LeftHandMiddle1
								{
									OFFSET 23.810104 0.000000 0.000000
									CHANNELS 3 Xrotation Yrotation Zrotation
									JOINT LeftHandMiddle2
									{
										OFFSET 7.176498 0.000000 0.000000
										CHANNELS 3 Xrotation Yrotation Zrotation
										JOINT LeftHandMiddle3
										{
											OFFSET 6.774902 0.000000 0.000000
											CHANNELS 3 Xrotation Yrotation Zrotation
											JOINT LeftHandMiddle4
											{
												OFFSET 5.403328 0.000000 0.000000
												CHANNELS 3 Xrotation Yrotation Zrotation
												End Site
												{
													OFFSET -0.027702 5.403244 0.017414
												}
											}
										}
									}
								}
								JOINT LeftHandRing1
								{
									OFFSET 22.908401 -0.839279 -6.020567
									CHANNELS 3 Xrotation Yrotation Zrotation
									JOINT LeftHandRing2
									{
										OFFSET 6.337502 0.000000 0.000000
										CHANNELS 3 Xrotation Yrotation Zrotation
										JOINT LeftHandRing3
										{
											OFFSET 5.779297 0.000000 0.000000
											CHANNELS 3 Xrotation Yrotation Zrotation
											JOINT LeftHandRing4
											{
												OFFSET 4.965698 0.000000 0.000000
												CHANNELS 3 Xrotation Yrotation Zrotation
												End Site
												{
													OFFSET 0.000000 4.965668 0.016186
												}
											}
										}
									}
								}
								JOINT LeftHandPinky1
								{
									OFFSET 20.037003 -1.530319 -10.950146
									CHANNELS 3 Xrotation Yrotation Zrotation
									JOINT LeftHandPinky2
									{
										OFFSET 5.254700 0.000000 0.000000
										CHANNELS 3 Xrotation Yrotation Zrotation
										JOINT LeftHandPinky3
										{
											OFFSET 4.810204 0.000000 0.000000
											CHANNELS 3 Xrotation Yrotation Zrotation
											JOINT LeftHandPinky4
											{
												OFFSET 3.647202 0.000000 0.000000
												CHANNELS 3 Xrotation Yrotation Zrotation
												End Site
												{
													OFFSET 0.000000 3.647186 0.011889
												}
											}
										}
									}
								}
							}
						}
					}
				}
				JOINT RightShoulder
				{
					OFFSET -15.141001 14.495407 -7.737500
					CHANNELS 3 Xrotation Yrotation Zrotation
					JOINT RightArm
					{
						OFFSET -9.308998 -2.777710 0.208500
						CHANNELS 3 Xrotation Yrotation Zrotation
						JOINT RightForeArm
						{
							OFFSET -29.972300 0.000000 0.000000
							CHANNELS 3 Xrotation Yrotation Zrotation
							JOINT RightHand
							{
								OFFSET -26.026505 0.000000 0.000000
								CHANNELS 3 Xrotation Yrotation Zrotation
								JOINT RightHandThumb1
								{
									OFFSET -12.240601 -7.148026 9.207092
									CHANNELS 3 Xrotation Yrotation Zrotation
									JOINT RightHandThumb2
									{
										OFFSET -4.138618 -2.389435 2.389433
										CHANNELS 3 Xrotation Yrotation Zrotation
										JOINT RightHandThumb3
										{
											OFFSET -2.726974 -1.574417 1.574421
											CHANNELS 3 Xrotation Yrotation Zrotation
											JOINT RightHandThumb4
											{
												OFFSET -3.941010 -2.275345 2.275343
												CHANNELS 3 Xrotation Yrotation Zrotation
												End Site
												{
													OFFSET 0.005814 5.087799 0.009927
												}
											}
										}
									}
								}
								JOINT RightHandIndex1
								{
									OFFSET -24.424698 -1.985657 5.953444
									CHANNELS 3 Xrotation Yrotation Zrotation
									JOINT RightHandIndex2
									{
										OFFSET -6.426697 0.000000 0.000000
										CHANNELS 3 Xrotation Yrotation Zrotation
										JOINT RightHandIndex3
										{
											OFFSET -5.337898 0.000000 0.000000
											CHANNELS 3 Xrotation Yrotation Zrotation
											JOINT RightHandIndex4
											{
												OFFSET -4.409401 0.000000 0.000000
												CHANNELS 3 Xrotation Yrotation Zrotation
												End Site
												{
													OFFSET 0.000000 4.409363 0.014408
												}
											}
										}
									}
								}
								JOINT RightHandMiddle1
								{
									OFFSET -23.810097 0.000000 0.000000
									CHANNELS 3 Xrotation Yrotation Zrotation
									JOINT RightHandMiddle2
									{
										OFFSET -7.176498 0.000000 0.000000
										CHANNELS 3 Xrotation Yrotation Zrotation
										JOINT RightHandMiddle3
										{
											OFFSET -6.774902 0.000000 0.000000
											CHANNELS 3 Xrotation Yrotation Zrotation
											JOINT RightHandMiddle4
											{
												OFFSET -5.403328 0.000000 0.000000
												CHANNELS 3 Xrotation Yrotation Zrotation
												End Site
												{
													OFFSET 0.027702 5.403244 0.017457
												}
											}
										}
									}
								}
								JOINT RightHandRing1
								{
									OFFSET -22.908302 -0.839325 -6.020576
									CHANNELS 3 Xrotation Yrotation Zrotation
									JOINT RightHandRing2
									{
										OFFSET -6.337502 0.000000 0.000000
										CHANNELS 3 Xrotation Yrotation Zrotation
										JOINT RightHandRing3
										{
											OFFSET -5.779297 0.000000 0.000000
											CHANNELS 3 Xrotation Yrotation Zrotation
											JOINT RightHandRing4
											{
												OFFSET -4.965698 0.000000 0.000000
												CHANNELS 3 Xrotation Yrotation Zrotation
												End Site
												{
													OFFSET 0.000000 4.965668 0.016226
												}
											}
										}
									}
								}
								JOINT RightHandPinky1
								{
									OFFSET -20.037003 -1.530334 -10.950259
									CHANNELS 3 Xrotation Yrotation Zrotation
									JOINT RightHandPinky2
									{
										OFFSET -5.254700 0.000000 0.000000
										CHANNELS 3 Xrotation Yrotation Zrotation
										JOINT RightHandPinky3
										{
											OFFSET -4.810204 0.000000 0.000000
											CHANNELS 3 Xrotation Yrotation Zrotation
											JOINT RightHandPinky4
											{
												OFFSET -3.647202 0.000000 0.000000
												CHANNELS 3 Xrotation Yrotation Zrotation
												End Site
												{
													OFFSET 0.000000 3.647186 0.011917
												}
											}
										}
									}
								}
							}
						}
					}
				}
			}
		}
	}
	JOINT LeftUpLeg
	{
		OFFSET 15.427100 -6.655098 0.678600
		CHANNELS 3 Xrotation Yrotation Zrotation
		JOINT LeftLeg
		{
			OFFSET 4.081073 -39.591068 13.024000
			CHANNELS 3 Xrotation Yrotation Zrotation
			JOINT LeftFoot
			{
				OFFSET -4.081074 -37.707932 -15.979700
				CHANNELS 3 Xrotation Yrotation Zrotation
				JOINT LeftToeBase
				{
					OFFSET 5.346399 -15.068900 20.645000
					CHANNELS 3 Xrotation Yrotation Zrotation
					JOINT LeftToe_End
					{
						OFFSET 2.754700 0.931300 11.300900
						CHANNELS 3 Xrotation Yrotation Zrotation
						End Site
						{
							OFFSET 0.000000 11.669021 0.000000
						}
					}
				}
			}
		}
	}
	JOINT RightUpLeg
	{
		OFFSET -15.569500 -6.655098 0.678600
		CHANNELS 3 Xrotation Yrotation Zrotation
		JOINT RightLeg
		{
			OFFSET -4.081825 -39.591045 13.023800
			CHANNELS 3 Xrotation Yrotation Zrotation
			JOINT RightFoot
			{
				OFFSET 4.081824 -37.707954 -15.979600
				CHANNELS 3 Xrotation Yrotation Zrotation
				JOINT RightToeBase
				{
					OFFSET -5.346400 -15.068900 20.645000
					CHANNELS 3 Xrotation Yrotation Zrotation
					JOINT RightToe_End
					{
						OFFSET -2.754700 0.931300 11.300900
						CHANNELS 3 Xrotation Yrotation Zrotation
						End Site
						{
							OFFSET 0.000000 11.669021 0.000000
						}
					}
				}
			}
		}
	}
}
MOTION
Frames: 4
Frame Time: 0.033333
0.574795 97.754227 -0.056479 -4.213509 -5.002204 -3.126161 2.712027 1.720102 2.889099 0.978498 0.424044 1.613182 0.952408 0.445949 1.616930 5.129910 -0.174387 0.622751 -7.395566 1.279182 -0.167007 0.000000 0.000000 0.000000 1.257769 -16.632383 -11.594681 3.759576 -20.029267 -71.112439 0.000004 -1.423024 -0.000003 -32.218976 -0.922926 -6.737958 -0.663006 2.160312 4.832485 11.853548 25.421623 17.058343 -13.813941 3.537280 9.035994 0.000001 -0.000000 -0.000001 0.019861 -0.969580 -7.593553 0.267871 1.752891 -17.375725 0.057682 0.820955 -8.037990 -0.000000 -0.000000 0.000001 -0.076314 2.665777 -15.696839 0.268784 1.755805 -17.405503 0.300526 1.853975 -18.413348 -0.000001 -0.000000 -0.000005 0.136909 3.641773 -21.133519 0.386623 2.094788 -20.911918 0.283041 1.800632 -17.865002 -0.000000 0.000000 0.000002 0.927724 5.555917 -27.128045 0.268796 1.755848 -17.405880 0.241911 1.667696 -16.505907 0.000000 0.000000 0.000000 1.292035 14.905172 14.605917 13.709353 27.655255 58.213333 0.000003 6.571388 0.000008 -19.985381 -0.682369 6.212921 -1.665246 -0.174474 -4.219030 12.710962 -29.825322 -16.130952 -15.549416 -3.559402 -12.707120 -0.000001 -0.000000 -0.000001 0.038554 1.262289 6.823708 0.213716 -1.396024 17.407038 0.046031 -0.653844 8.053234 -0.000001 -0.000000 -0.000002 -0.136226 -2.205104 14.998880 0.214450 -1.398342 17.436879 0.239776 -1.476535 18.446263 0.000000 0.000001 -0.000005 0.030608 -3.075760 20.451010 0.308442 -1.668284 20.948540 0.225824 -1.434044 17.897093 0.000000 0.000001 -0.000001 0.748880 -4.885240 26.473772 0.214457 -1.398386 17.437244 0.193011 -1.328182 16.535830 -0.000001 0.000000 0.000001 -8.584269 14.729231 10.704292 11.115399 1.605961 4.142239 1.055880 0.831817 -8.457421 -4.865133 0.000006 0.000000 0.000001 0.000000 -0.000000 4.594080 -10.419311 1.242079 6.692033 -8.588504 -2.582071 -6.033843 -2.946502 5.054138 -6.903404 -0.000006 -0.000002 -0.000000 0.000001 -0.000000 
0.579213 97.767052 -0.055382 -4.206977 -4.999004 -3.136463 2.700591 1.720158 2.886185 0.975343 0.424253 1.610469 0.949248 0.446153 1.614244 5.118853 -0.175191 0.616331 -7.400804 1.265751 -0.160427 -0.000000 -0.000000 0.000000 1.255444 -16.639137 -11.606617 3.780064 -20.013494 -71.105227 -0.000001 -1.419427 -0.000006 -32.211357 -0.919534 -6.733605 -0.663004 2.160313 4.832485 11.853548 25.421619 17.058338 -13.813942 3.537281 9.035994 0.000000 -0.000002 -0.000003 0.019860 -0.969580 -7.593552 0.267870 1.752891 -17.375725 0.057682 0.820956 -8.037995 0.000001 -0.000000 0.000000 -0.076315 2.665778 -15.696839 0.268782 1.755805 -17.405506 0.300526 1.853975 -18.413340 -0.000001 -0.000000 -0.000003 0.136908 3.641774 -21.133519 0.386623 2.094788 -20.911924 0.283042 1.800631 -17.865010 0.000000 -0.000000 0.000000 0.927724 5.555917 -27.128041 0.268796 1.755847 -17.405882 0.241911 1.667695 -16.505909 0.000001 -0.000001 -0.000001 1.294983 14.885221 14.612889 13.742810 27.668941 58.195254 -0.000005 6.565662 0.000001 -20.000725 -0.674914 6.231740 -1.665246 -0.174474 -4.219030 12.710960 -29.825322 -16.130953 -15.549416 -3.559402 -12.707120 -0.000002 0.000000 -0.000002 0.038556 1.262290 6.823707 0.213717 -1.396024 17.407036 0.046031 -0.653846 8.053234 0.000002 -0.000001 -0.000001 -0.136225 -2.205105 14.998877 0.214448 -1.398342 17.436880 0.239775 -1.476535 18.446263 -0.000001 -0.000001 0.000001 0.030608 -3.075760 20.451010 0.308440 -1.668283 20.948533 0.225822 -1.434044 17.897099 0.000001 0.000000 0.000000 0.748880 -4.885241 26.473769 0.214452 -1.398384 17.437242 0.193010 -1.328182 16.535830 -0.000000 -0.000001 0.000001 -8.576054 14.724264 10.707858 11.084072 1.611640 4.144495 1.071427 0.830019 -8.462008 -4.861457 0.000012 0.000000 0.000000 0.000000 0.000000 4.617501 -10.427020 1.248531 6.636722 -8.585508 -2.567173 -6.004436 -2.938756 5.044709 -6.899284 -0.000018 -0.000002 0.000001 0.000001 0.000000 
0.582785 97.777588 -0.053001 -4.197367 -4.998292 -3.145847 2.693405 1.720337 2.882298 0.973116 0.424487 1.607814 0.947014 0.446386 1.611602 5.108320 -0.174546 0.607282 -7.407986 1.259508 -0.159764 0.000000 -0.000000 0.000000 1.253928 -16.639145 -11.620454 3.792948 -20.001362 -71.091334 -0.000009 -1.421682 0.000022 -32.201446 -0.920852 -6.724948 -0.663003 2.160312 4.832484 11.853548 25.421621 17.058339 -13.813945 3.537280 9.035989 -0.000001 0.000001 0.000002 0.019860 -0.969580 -7.593553 0.267870 1.752891 -17.375726 0.057681 0.820955 -8.037995 0.000001 -0.000000 -0.000002 -0.076314 2.665777 -15.696839 0.268784 1.755806 -17.405501 0.300527 1.853975 -18.413346 -0.000001 -0.000001 -0.000004 0.136909 3.641773 -21.133517 0.386621 2.094788 -20.911924 0.283041 1.800631 -17.865004 0.000000 0.000000 0.000001 0.927723 5.555916 -27.128043 0.268797 1.755848 -17.405882 0.241911 1.667696 -16.505910 -0.000000 0.000000 0.000001 1.298306 14.863111 14.620075 13.771949 27.698102 58.170378 -0.000005 6.552370 0.000008 -20.027073 -0.664027 6.243958 -1.665244 -0.174475 -4.219030 12.710958 -29.825322 -16.130953 -15.549414 -3.559406 -12.707121 0.000001 0.000000 0.000001 0.038558 1.262290 6.823708 0.213717 -1.396024 17.407039 0.046032 -0.653847 8.053235 0.000002 0.000000 -0.000003 -0.136227 -2.205105 14.998877 0.214451 -1.398342 17.436880 0.239776 -1.476536 18.446265 0.000002 0.000001 -0.000001 0.030608 -3.075761 20.451010 0.308443 -1.668284 20.948532 0.225822 -1.434043 17.897092 0.000000 -0.000000 -0.000001 0.748880 -4.885241 26.473771 0.214455 -1.398386 17.437241 0.193007 -1.328181 16.535830 -0.000000 -0.000001 -0.000000 -8.575525 14.718651 10.711933 11.062770 1.613236 4.147212 1.082867 0.828326 -8.463656 -4.864702 0.000002 0.000004 0.000000 -0.000000 -0.000000 4.630359 -10.427097 1.256370 6.594443 -8.582719 -2.558354 -5.978602 -2.935557 5.038741 -6.890213 0.000018 0.000001 0.000000 -0.000001 0.000000 
0.585950 97.782501 -0.050438 -4.184914 -5.001861 -3.155703 2.691073 1.719337 2.878770 0.972100 0.424190 1.605593 0.945997 0.446093 1.609382 5.099915 -0.171589 0.596974 -7.425689 1.265884 -0.166483 -0.000000 -0.000000 -0.000000 1.253571 -16.630688 -11.635291 3.795627 -19.993608 -71.072742 0.000002 -1.425230 0.000007 -32.193069 -0.931700 -6.706674 -0.663003 2.160312 4.832484 11.853553 25.421623 17.058341 -13.813941 3.537283 9.035990 -0.000001 -0.000003 -0.000002 0.019862 -0.969580 -7.593553 0.267871 1.752892 -17.375723 0.057682 0.820956 -8.037996 -0.000000 -0.000000 0.000000 -0.076313 2.665778 -15.696839 0.268782 1.755805 -17.405506 0.300527 1.853976 -18.413346 -0.000000 0.000001 0.000003 0.136909 3.641773 -21.133519 0.386622 2.094788 -20.911925 0.283040 1.800631 -17.865009 -0.000000 0.000001 -0.000001 0.927725 5.555917 -27.128048 0.268797 1.755847 -17.405885 0.241910 1.667694 -16.505905 0.000000 -0.000000 -0.000000 1.299764 14.852864 14.624381 13.783509 27.715733 58.152470 -0.000005 6.545542 0.000012 -20.046327 -0.658278 6.241867 -1.665247 -0.174474 -4.219030 12.710961 -29.825322 -16.130953 -15.549417 -3.559403 -12.707120 -0.000000 0.000001 0.000001 0.038553 1.262289 6.823708 0.213718 -1.396024 17.407038 0.046031 -0.653845 8.053231 0.000002 0.000001 0.000001 -0.136227 -2.205105 14.998875 0.214450 -1.398342 17.436882 0.239776 -1.476537 18.446258 -0.000001 0.000003 0.000000 0.030609 -3.075761 20.451012 0.308438 -1.668284 20.948539 0.225822 -1.434043 17.897090 0.000002 -0.000000 -0.000002 0.748881 -4.885241 26.473771 0.214454 -1.398385 17.437236 0.193010 -1.328183 16.535828 -0.000001 0.000002 -0.000000 -8.586888 14.713252 10.719748 11.059665 1.613570 4.150303 1.083790 0.827472 -8.464901 -4.871009 0.000011 -0.000003 0.000000 -0.000000 -0.000000 4.630634 -10.417761 1.266565 6.569644 -8.580549 -2.555749 -5.963631 -2.935063 5.036004 -6.891289 0.000006 -0.000002 -0.000000 -0.000001 -0.000000 
